<?xml version="1.0" standalone="no"?><!DOCTYPE svg PUBLIC "-//W3C//DTD SVG 1.1//EN" "http://www.w3.org/Graphics/SVG/1.1/DTD/svg11.dtd"><svg t="1555664041865" class="icon" style="" viewBox="0 0 1024 1024" version="1.1" xmlns="http://www.w3.org/2000/svg" p-id="521" xmlns:xlink="http://www.w3.org/1999/xlink" width="200" height="200"><defs><style type="text/css"></style></defs><path d="M490.666667 681.386667 508.16 785.493333C497.066667 791.466667 479.146667 797.013333 455.253333 802.133333 430.933333 807.68 402.346667 810.666667 369.493333 810.666667 275.2 808.96 204.373333 780.8 157.013333 727.04 109.226667 672.853333 85.333333 604.16 85.333333 520.96 87.466667 422.4 116.053333 346.88 170.666667 293.973333 226.986667 240.64 296.96 213.333333 381.44 213.333333 413.44 213.333333 441.173333 216.32 464.213333 221.44 487.253333 226.56 504.32 232.106667 515.413333 238.506667L490.666667 344.746667 445.44 330.24C428.373333 325.973333 408.746667 323.84 386.133333 323.84 336.64 323.413333 295.68 339.2 263.68 370.773333 231.253333 401.92 214.613333 449.706667 213.333333 513.28 213.333333 571.306667 229.12 616.533333 259.413333 649.813333 289.706667 682.666667 332.373333 699.733333 386.986667 700.16L443.733333 695.04C462.08 691.626667 477.44 686.933333 490.666667 681.386667M592.64 810.666667 618.666667 640 554.666667 640 569.173333 554.666667 633.173333 554.666667 646.826667 469.333333 582.826667 469.333333 597.333333 384 661.333333 384 687.36 213.333333 772.693333 213.333333 746.666667 384 789.333333 384 815.36 213.333333 900.693333 213.333333 874.666667 384 938.666667 384 924.16 469.333333 860.16 469.333333 846.506667 554.666667 910.506667 554.666667 896 640 832 640 805.973333 810.666667 720.64 810.666667 746.666667 640 704 640 677.973333 810.666667 592.64 810.666667M718.506667 554.666667 761.173333 554.666667 774.826667 469.333333 732.16 469.333333 718.506667 554.666667Z" p-id="522" fill="#1296db"></path></svg>